<svg width="24" height="24" viewBox="0 0 24 24" fill="none" xmlns="http://www.w3.org/2000/svg">
<path d="M18.0802 12.4202L11.9002 18.6102C11.09 19.3302 10.0353 19.7135 8.95188 19.6816C7.86846 19.6497 6.83816 19.2051 6.07173 18.4386C5.30531 17.6722 4.86067 16.6419 4.82878 15.5585C4.79688 14.4751 5.18014 13.4204 5.90016 12.6102L13.9002 4.61021C14.3778 4.15651 15.0114 3.90354 15.6702 3.90354C16.3289 3.90354 16.9625 4.15651 17.4402 4.61021C17.9055 5.0818 18.1664 5.71768 18.1664 6.38021C18.1664 7.04274 17.9055 7.67862 17.4402 8.15021L10.5402 15.0402C10.4719 15.1138 10.3898 15.1731 10.2985 15.2149C10.2073 15.2567 10.1087 15.2802 10.0084 15.2839C9.90816 15.2876 9.80812 15.2715 9.71405 15.2366C9.61997 15.2016 9.5337 15.1485 9.46016 15.0802C9.38662 15.0119 9.32725 14.9298 9.28544 14.8386C9.24363 14.7474 9.2202 14.6488 9.21648 14.5485C9.21277 14.4482 9.22885 14.3482 9.26379 14.2541C9.29874 14.16 9.35187 14.0738 9.42016 14.0002L14.5502 8.88021C14.7385 8.69191 14.8443 8.43651 14.8443 8.17021C14.8443 7.90391 14.7385 7.64852 14.5502 7.46021C14.3619 7.27191 14.1065 7.16612 13.8402 7.16612C13.5739 7.16612 13.3185 7.27191 13.1302 7.46021L8.00016 12.6002C7.74346 12.8549 7.53973 13.1579 7.40069 13.4917C7.26166 13.8256 7.19008 14.1836 7.19008 14.5452C7.19008 14.9068 7.26166 15.2649 7.40069 15.5987C7.53973 15.9325 7.74346 16.2355 8.00016 16.4902C8.52453 16.9897 9.22097 17.2683 9.94516 17.2683C10.6694 17.2683 11.3658 16.9897 11.8902 16.4902L18.7802 9.59021C19.575 8.73716 20.0078 7.60888 19.9872 6.44308C19.9666 5.27727 19.4944 4.16496 18.6699 3.34048C17.8454 2.516 16.7331 2.04373 15.5673 2.02316C14.4015 2.00259 13.2732 2.43533 12.4202 3.23021L4.42016 11.2302C3.34136 12.425 2.76519 13.9901 2.81169 15.5992C2.8582 17.2083 3.52379 18.7374 4.6698 19.868C5.8158 20.9985 7.35384 21.6433 8.96344 21.6679C10.5731 21.6925 12.1301 21.0951 13.3102 20.0002L19.5002 13.8202C19.5934 13.727 19.6674 13.6163 19.7178 13.4945C19.7683 13.3726 19.7943 13.2421 19.7943 13.1102C19.7943 12.9784 19.7683 12.8478 19.7178 12.726C19.6674 12.6041 19.5934 12.4935 19.5002 12.4002C19.4069 12.307 19.2962 12.233 19.1744 12.1826C19.0526 12.1321 18.922 12.1061 18.7902 12.1061C18.6583 12.1061 18.5277 12.1321 18.4059 12.1826C18.2841 12.233 18.1734 12.307 18.0802 12.4002V12.4202Z" fill="#212329"/>
</svg>
