<svg width="20" height="21" viewBox="0 0 20 21" fill="none" xmlns="http://www.w3.org/2000/svg">
<path d="M19 16.0041H17V13.0041C17 12.7389 16.8946 12.4845 16.7071 12.297C16.5196 12.1095 16.2652 12.0041 16 12.0041H11V9.29411L12.13 9.88411C12.2948 9.97032 12.4804 10.0089 12.6658 9.99541C12.8513 9.98196 13.0294 9.91705 13.18 9.80797C13.3307 9.69889 13.4479 9.54997 13.5185 9.37794C13.5892 9.2059 13.6105 9.01757 13.58 8.83411L13.18 6.46411L14.9 4.77411C15.0303 4.64689 15.1233 4.48652 15.1692 4.31029C15.215 4.13406 15.2118 3.94867 15.16 3.77411C15.102 3.59638 14.9954 3.43846 14.8522 3.31827C14.7091 3.19807 14.5351 3.12042 14.35 3.09411L12 2.72411L10.9 0.56411C10.8181 0.395039 10.6903 0.252452 10.5311 0.152684C10.3719 0.0529152 10.1879 0 10 0C9.81214 0 9.62809 0.0529152 9.46891 0.152684C9.30974 0.252452 9.18188 0.395039 9.1 0.56411L8 2.72411L5.61 3.07411C5.42492 3.10042 5.25092 3.17807 5.10775 3.29827C4.96458 3.41846 4.85796 3.57638 4.8 3.75411C4.74819 3.92867 4.74502 4.11406 4.79084 4.29029C4.83666 4.46652 4.92973 4.62689 5.06 4.75411L6.82 6.46411L6.42 8.83411C6.38952 9.01757 6.4108 9.2059 6.48145 9.37794C6.5521 9.54997 6.66933 9.69889 6.81996 9.80797C6.9706 9.91705 7.14866 9.98196 7.33415 9.99541C7.51964 10.0089 7.70521 9.97032 7.87 9.88411L9 9.29411V12.0041H4C3.73478 12.0041 3.48043 12.1095 3.29289 12.297C3.10536 12.4845 3 12.7389 3 13.0041V16.0041H1C0.734784 16.0041 0.48043 16.1095 0.292893 16.297C0.105357 16.4845 0 16.7389 0 17.0041V19.0041C0 19.2693 0.105357 19.5237 0.292893 19.7112C0.48043 19.8988 0.734784 20.0041 1 20.0041C1.26522 20.0041 1.51957 19.8988 1.70711 19.7112C1.89464 19.5237 2 19.2693 2 19.0041V18.0041H6V19.0041C6 19.2693 6.10536 19.5237 6.29289 19.7112C6.48043 19.8988 6.73478 20.0041 7 20.0041C7.26522 20.0041 7.51957 19.8988 7.70711 19.7112C7.89464 19.5237 8 19.2693 8 19.0041V17.0041C8 16.7389 7.89464 16.4845 7.70711 16.297C7.51957 16.1095 7.26522 16.0041 7 16.0041H5V14.0041H15V16.0041H13C12.7348 16.0041 12.4804 16.1095 12.2929 16.297C12.1054 16.4845 12 16.7389 12 17.0041V19.0041C12 19.2693 12.1054 19.5237 12.2929 19.7112C12.4804 19.8988 12.7348 20.0041 13 20.0041C13.2652 20.0041 13.5196 19.8988 13.7071 19.7112C13.8946 19.5237 14 19.2693 14 19.0041V18.0041H18V19.0041C18 19.2693 18.1054 19.5237 18.2929 19.7112C18.4804 19.8988 18.7348 20.0041 19 20.0041C19.2652 20.0041 19.5196 19.8988 19.7071 19.7112C19.8946 19.5237 20 19.2693 20 19.0041V17.0041C20 16.7389 19.8946 16.4845 19.7071 16.297C19.5196 16.1095 19.2652 16.0041 19 16.0041ZM10 6.63411C9.83586 6.63493 9.67444 6.67614 9.53 6.75411L8.73 7.17411L8.88 6.27411C8.90624 6.11491 8.89357 5.95173 8.84307 5.7985C8.79257 5.64526 8.70574 5.50652 8.59 5.39411L7.94 4.75411L8.84 4.62411C9.00101 4.6026 9.15436 4.54219 9.28678 4.4481C9.4192 4.35401 9.52671 4.22908 9.6 4.08411L10 3.26411L10.4 4.08411C10.4733 4.22908 10.5808 4.35401 10.7132 4.4481C10.8456 4.54219 10.999 4.6026 11.16 4.62411L12.06 4.75411L11.41 5.39411C11.2943 5.50652 11.2074 5.64526 11.1569 5.7985C11.1064 5.95173 11.0938 6.11491 11.12 6.27411L11.27 7.17411L10.47 6.75411C10.3256 6.67614 10.1641 6.63493 10 6.63411Z" fill="#212329"/>
</svg>
