<svg width="19" height="21" viewBox="0 0 19 21" fill="none" xmlns="http://www.w3.org/2000/svg">
<path d="M18.7924 3.74722C18.7583 3.61953 18.6992 3.49987 18.6185 3.39517C18.5378 3.29046 18.4372 3.20279 18.3224 3.13722L13.1224 0.137223C13.0089 0.0706903 12.8834 0.0272213 12.753 0.00930814C12.6226 -0.00860505 12.49 -0.000610311 12.3627 0.0328341C12.2354 0.0662785 12.116 0.124515 12.0113 0.204204C11.9066 0.283894 11.8186 0.38347 11.7524 0.497223L9.41245 4.55722L7.07245 0.497223C7.00628 0.38347 6.91832 0.283894 6.8136 0.204204C6.70887 0.124515 6.58945 0.0662785 6.46218 0.0328341C6.3349 -0.000610311 6.20228 -0.00860505 6.07191 0.00930814C5.94154 0.0272213 5.81598 0.0706903 5.70245 0.137223L0.502447 3.13722C0.387679 3.20279 0.287049 3.29046 0.206376 3.39517C0.125702 3.49987 0.0665864 3.61953 0.0324471 3.74722C-0.0337362 4.00067 0.00217034 4.26997 0.132447 4.49722L4.13245 11.3272C3.68619 12.1448 3.43949 13.0562 3.41245 13.9872C3.41007 14.8955 3.61393 15.7925 4.00867 16.6105C4.4034 17.4285 4.97871 18.1463 5.6912 18.7096C6.4037 19.2729 7.23479 19.6671 8.12182 19.8625C9.00884 20.0579 9.92865 20.0493 10.8119 19.8375C11.6951 19.6256 12.5187 19.216 13.2206 18.6395C13.9225 18.063 14.4844 17.3347 14.8638 16.5095C15.2432 15.6842 15.4304 14.7836 15.4111 13.8755C15.3918 12.9675 15.1666 12.0756 14.7524 11.2672L18.6524 4.50722C18.725 4.39616 18.7748 4.27177 18.7988 4.14129C18.8229 4.01081 18.8207 3.87686 18.7924 3.74722ZM2.41245 4.36722L5.87245 2.36722L9.09245 7.98722C7.71987 8.07202 6.41923 8.63045 5.41245 9.56722L2.41245 4.36722ZM9.41245 17.9872C8.35158 17.9872 7.33417 17.5658 6.58402 16.8156C5.83387 16.0655 5.41245 15.0481 5.41245 13.9872C5.41245 12.9264 5.83387 11.9089 6.58402 11.1588C7.33417 10.4086 8.35158 9.98722 9.41245 9.98722C10.4733 9.98722 11.4907 10.4086 12.2409 11.1588C12.991 11.9089 13.4124 12.9264 13.4124 13.9872C13.4124 15.0481 12.991 16.0655 12.2409 16.8156C11.4907 17.5658 10.4733 17.9872 9.41245 17.9872ZM13.4124 9.53722C12.8695 9.04134 12.2387 8.6513 11.5524 8.38722L10.5724 6.55722L12.9924 2.36722L16.4524 4.36722L13.4124 9.53722Z" fill="#212329"/>
</svg>
