<svg width="24" height="24" viewBox="0 0 24 24" fill="none" xmlns="http://www.w3.org/2000/svg">
<path d="M21.1701 2.06012C20.4533 1.93665 19.7274 1.8731 19.0001 1.87012C16.5184 1.86809 14.0886 2.57969 12.0001 3.92012C9.90623 2.59729 7.47674 1.90315 5.00008 1.92012C4.27273 1.9231 3.54689 1.98665 2.83008 2.11012C2.59529 2.1506 2.38267 2.27358 2.2305 2.45691C2.07833 2.64025 1.99662 2.87189 2.00008 3.11012V15.1101C1.99794 15.2571 2.02821 15.4027 2.08873 15.5366C2.14926 15.6705 2.23855 15.7894 2.35026 15.8849C2.46197 15.9803 2.59334 16.05 2.73504 16.089C2.87674 16.1279 3.02528 16.1351 3.17008 16.1101C4.6031 15.862 6.07129 15.9032 7.48815 16.2312C8.90501 16.5592 10.2419 17.1675 11.4201 18.0201L11.5401 18.0901H11.6501C11.761 18.1363 11.8799 18.1601 12.0001 18.1601C12.1202 18.1601 12.2392 18.1363 12.3501 18.0901H12.4601L12.5801 18.0201C13.75 17.1484 15.0831 16.5205 16.5002 16.1735C17.9174 15.8265 19.3897 15.7675 20.8301 16.0001C20.9749 16.0251 21.1234 16.0179 21.2651 15.979C21.4068 15.94 21.5382 15.8703 21.6499 15.7749C21.7616 15.6794 21.8509 15.5605 21.9114 15.4266C21.972 15.2927 22.0022 15.1471 22.0001 15.0001V3.00012C21.9897 2.77228 21.9017 2.55483 21.7507 2.38386C21.5998 2.21289 21.3949 2.09866 21.1701 2.06012ZM11.0001 15.3501C9.14997 14.3768 7.0906 13.8688 5.00008 13.8701C4.67008 13.8701 4.34008 13.8701 4.00008 13.8701V3.87012C4.33314 3.85093 4.66703 3.85093 5.00008 3.87012C7.13347 3.86776 9.2203 4.49381 11.0001 5.67012V15.3501ZM20.0001 13.9101C19.6601 13.9101 19.3301 13.9101 19.0001 13.9101C16.9096 13.9088 14.8502 14.4168 13.0001 15.3901V5.67012C14.7799 4.49381 16.8667 3.86776 19.0001 3.87012C19.3331 3.85093 19.667 3.85093 20.0001 3.87012V13.9101ZM21.1701 18.0601C20.4533 17.9367 19.7274 17.8731 19.0001 17.8701C16.5184 17.8681 14.0886 18.5797 12.0001 19.9201C9.9116 18.5797 7.48172 17.8681 5.00008 17.8701C4.27273 17.8731 3.54689 17.9367 2.83008 18.0601C2.69991 18.0808 2.57511 18.127 2.46285 18.196C2.35059 18.2651 2.25309 18.3557 2.17595 18.4625C2.09882 18.5694 2.04357 18.6905 2.01339 18.8188C1.98321 18.9471 1.97869 19.0801 2.00008 19.2101C2.0509 19.4698 2.20257 19.6988 2.42188 19.8468C2.64118 19.9949 2.91022 20.05 3.17008 20.0001C4.6031 19.752 6.07129 19.7932 7.48815 20.1212C8.90501 20.4492 10.2419 21.0575 11.4201 21.9101C11.5894 22.0307 11.7922 22.0955 12.0001 22.0955C12.208 22.0955 12.4107 22.0307 12.5801 21.9101C13.7583 21.0575 15.0952 20.4492 16.512 20.1212C17.9289 19.7932 19.3971 19.752 20.8301 20.0001C21.0899 20.05 21.359 19.9949 21.5783 19.8468C21.7976 19.6988 21.9493 19.4698 22.0001 19.2101C22.0215 19.0801 22.017 18.9471 21.9868 18.8188C21.9566 18.6905 21.9014 18.5694 21.8242 18.4625C21.7471 18.3557 21.6496 18.2651 21.5373 18.196C21.4251 18.127 21.3003 18.0808 21.1701 18.0601Z" fill="#212329"/>
</svg>
