<svg width="21" height="16" viewBox="0 0 21 16" fill="none" xmlns="http://www.w3.org/2000/svg">
<path d="M20.4869 5.61L19.4869 5.06L10.4869 0.0599999H10.3769C10.3156 0.0340787 10.252 0.01399 10.1869 0H9.99695H9.81695C9.74863 0.0139992 9.68169 0.0340791 9.61695 0.0599999H9.50695L0.506948 5.06C0.35305 5.14722 0.225042 5.2737 0.135983 5.42654C0.0469232 5.57938 0 5.75311 0 5.93C0 6.10689 0.0469232 6.28062 0.135983 6.43346C0.225042 6.5863 0.35305 6.71278 0.506948 6.8L2.99695 8.18V12.92C2.99695 13.7156 3.31302 14.4787 3.87563 15.0413C4.43824 15.6039 5.2013 15.92 5.99695 15.92H13.9969C14.7926 15.92 15.5557 15.6039 16.1183 15.0413C16.6809 14.4787 16.9969 13.7156 16.9969 12.92V8.18L18.9969 7.06V9.92C18.9969 10.1852 19.1023 10.4396 19.2898 10.6271C19.4774 10.8146 19.7317 10.92 19.9969 10.92C20.2622 10.92 20.5165 10.8146 20.7041 10.6271C20.8916 10.4396 20.9969 10.1852 20.9969 9.92V6.48C20.9966 6.3028 20.9493 6.12887 20.8596 5.976C20.77 5.82314 20.6414 5.69683 20.4869 5.61ZM14.9969 12.92C14.9969 13.1852 14.8916 13.4396 14.7041 13.6271C14.5165 13.8146 14.2622 13.92 13.9969 13.92H5.99695C5.73173 13.92 5.47738 13.8146 5.28984 13.6271C5.10231 13.4396 4.99695 13.1852 4.99695 12.92V9.29L9.50695 11.79L9.65695 11.85H9.74695C9.82995 11.8605 9.91394 11.8605 9.99695 11.85C10.08 11.8605 10.1639 11.8605 10.2469 11.85H10.3369C10.39 11.8388 10.4408 11.8185 10.4869 11.79L14.9969 9.29V12.92ZM9.99695 9.78L3.05695 5.92L9.99695 2.06L16.9369 5.92L9.99695 9.78Z" fill="#212329"/>
</svg>
